<svg width="32" height="31" viewBox="0 0 32 31" fill="none" xmlns="http://www.w3.org/2000/svg">
<ellipse cx="16" cy="15.5" rx="16" ry="15.5" fill="#582709"/>
<g clip-path="url(#clip0_4_8)">
<path d="M10.4124 17.3477L7.38689 21.1029C7.03827 21.5357 7.16916 22.1737 7.67363 22.4927L10.7707 24.4518C11.692 25.035 12.8809 25.0149 13.7135 24.4015C18.7139 20.7316 22.3071 15.565 23.9109 9.73892C24.1789 8.7685 23.7363 7.71501 22.815 7.13183L19.6891 5.15438C19.1833 4.83381 18.5137 4.96824 18.2325 5.44695L15.8066 9.57989C15.5529 10.0122 15.7107 10.5722 16.1684 10.8616L17.6865 11.8222C17.7672 11.8708 17.8287 11.9438 17.8616 12.03C17.8944 12.1162 17.8967 12.2108 17.8682 12.2994C17.0751 14.5314 15.6845 16.5311 13.8382 18.0946C13.7637 18.1543 13.6714 18.1891 13.5753 18.1937C13.4793 18.1984 13.3848 18.1726 13.3064 18.1204L11.7938 17.1623C11.334 16.8724 10.7299 16.9527 10.4115 17.3479L10.4124 17.3477Z" stroke="#EBBF8C" stroke-width="2" stroke-linecap="round" stroke-linejoin="round"/>
</g>
<defs>
<clipPath id="clip0_4_8">
<rect width="24" height="24" fill="white" transform="translate(6.39771 1.00726) rotate(10.5409)"/>
</clipPath>
</defs>
</svg>
