<svg width="21" height="16" viewBox="0 0 21 16" fill="none" xmlns="http://www.w3.org/2000/svg">
<path d="M0.612874 1.03893C0.528733 1.20069 0.490235 1.38232 0.50151 1.56431C0.512785 1.7463 0.573408 1.92179 0.676873 2.07193L9.67687 15.0719C9.7689 15.2048 9.89176 15.3133 10.0349 15.3883C10.1781 15.4633 10.3373 15.5024 10.4989 15.5024C10.6605 15.5024 10.8197 15.4633 10.9628 15.3883C11.106 15.3133 11.2288 15.2048 11.3209 15.0719L20.3209 2.07193C20.4247 1.9219 20.4855 1.74634 20.4967 1.56424C20.5078 1.38215 20.469 1.20046 20.3843 1.03886C20.2997 0.877256 20.1724 0.741893 20.0163 0.647427C19.8603 0.552961 19.6813 0.502991 19.4989 0.50293L1.49887 0.50293C1.31634 0.5029 1.13727 0.552833 0.981092 0.647317C0.824911 0.741801 0.697571 0.877232 0.612874 1.03893Z" fill="#CC9966"/>
</svg>
